<svg id="find_in_page_black_24dp_1_" data-name="find_in_page_black_24dp (1)" xmlns="http://www.w3.org/2000/svg" width="32.366" height="32.366" viewBox="0 0 32.366 32.366">
  <path id="Trazado_259" data-name="Trazado 259" d="M0,0H32.366V32.366H0Z" fill="none"/>
  <path id="Trazado_260" data-name="Trazado 260" d="M25.577,25.722V10.092L17.486,2H6.7A2.694,2.694,0,0,0,4.013,4.7L4,26.275a2.694,2.694,0,0,0,2.684,2.7h16.2a2.673,2.673,0,0,0,1.6-.539l-5.974-5.974a6.744,6.744,0,1,1,3.021-5.624,6.714,6.714,0,0,1-1.119,3.709ZM10.743,16.835a4.046,4.046,0,1,0,4.046-4.046A4.04,4.04,0,0,0,10.743,16.835Z" transform="translate(1.394 0.697)" fill="#0066e7"/>
</svg>
