<svg xmlns="http://www.w3.org/2000/svg" width="27.803" height="28.743" viewBox="0 0 27.803 28.743">
  <g id="jira-seeklogo.com" transform="translate(-0.002 0)" opacity="0.5">
    <path id="Trazado_200" data-name="Trazado 200" d="M27.469,13.567,15.1,1.2,13.9,0,4.592,9.311.334,13.567a1.141,1.141,0,0,0,0,1.609L8.84,23.682,13.9,28.743l9.309-9.311.145-.144,4.113-4.106a1.138,1.138,0,0,0,0-1.615ZM13.9,18.621l-4.25-4.25,4.25-4.25,4.249,4.25Z" transform="translate(0)" fill="#0e2f34"/>
    <path id="Trazado_201" data-name="Trazado 201" d="M44.95,10.357A7.154,7.154,0,0,1,44.919.27l-9.3,9.3,5.061,5.061Z" transform="translate(-31.047 -0.235)" fill="#0e2f34"/>
    <path id="Trazado_202" data-name="Trazado 202" d="M112.59,111.91l-4.26,4.261a7.156,7.156,0,0,1,0,10.119l9.325-9.32Z" transform="translate(-94.428 -97.55)" fill="#0e2f34"/>
  </g>
</svg>
