<?xml version="1.0" standalone="no"?>
<!DOCTYPE svg PUBLIC "-//W3C//DTD SVG 20010904//EN"
 "http://www.w3.org/TR/2001/REC-SVG-20010904/DTD/svg10.dtd">
<svg version="1.0" xmlns="http://www.w3.org/2000/svg"
 width="512.000000pt" height="512.000000pt" viewBox="0 0 512.000000 512.000000"
 preserveAspectRatio="xMidYMid meet">

<g transform="translate(0.000000,512.000000) scale(0.100000,-0.100000)"
fill="#000000" stroke="none">
<path d="M514 5110 c-230 -34 -419 -202 -491 -435 -17 -57 -18 -148 -18 -2115
0 -1967 1 -2058 18 -2115 64 -208 214 -358 422 -422 57 -17 148 -18 2115 -18
1967 0 2058 1 2115 18 208 64 358 214 422 422 17 57 18 148 18 2115 0 1967 -1
2058 -18 2115 -63 205 -208 351 -417 422 -53 17 -140 18 -2085 19 -1117 1
-2053 -2 -2081 -6z m2546 -2560 l0 -1040 -250 0 -250 0 0 1040 0 1040 250 0
250 0 0 -1040z m-1372 849 c189 -29 398 -154 516 -308 248 -323 245 -757 -7
-1069 -103 -127 -283 -244 -447 -289 -102 -28 -340 -25 -444 5 -230 66 -421
222 -530 433 -73 140 -91 217 -91 394 1 159 13 223 70 351 85 192 277 371 475
443 158 57 280 68 458 40z m2002 -414 l95 -95 95 95 95 95 167 0 168 0 0 -167
0 -168 -95 -95 -95 -95 95 -95 95 -95 0 -162 0 -163 -173 0 -172 0 -90 90 -90
90 -90 -90 -90 -90 -173 0 -172 0 0 162 0 163 95 95 95 95 -95 95 -95 95 0
161 c0 88 3 164 7 167 3 4 79 7 167 7 l161 0 95 -95z"/>
<path d="M1468 2806 c-26 -7 -55 -19 -65 -26 -84 -64 -123 -134 -123 -220 1
-141 111 -250 256 -250 150 0 266 127 251 275 -16 157 -169 263 -319 221z"/>
</g>
</svg>
