<svg xmlns="http://www.w3.org/2000/svg" width="26.247" height="15" viewBox="0 0 26.247 15">
  <path id="olx-logo-vector" d="M-109.5,107.6v15h-3.749v-15Zm-11.247,1.247A6.252,6.252,0,0,1-114.5,115.1a6.252,6.252,0,0,1-6.251,6.251A6.252,6.252,0,0,1-127,115.1,6.252,6.252,0,0,1-120.749,108.847Zm15.149,2.5,1.1,1.1,1.1-1.1h2.651V114l-1.1,1.1,1.1,1.1v2.651H-103.4l-1.1-1.1-1.1,1.1h-2.651V116.2l1.1-1.1-1.1-1.1v-2.651h2.651Zm-15.149,1.251a2.5,2.5,0,0,0-2.5,2.5,2.5,2.5,0,0,0,2.5,2.5,2.5,2.5,0,0,0,2.5-2.5A2.5,2.5,0,0,0-120.749,112.6Z" transform="translate(127 -107.6)" fill="#fff"/>
</svg>
